<?xml version="1.0" encoding="utf-8" ?>
<svg baseProfile="full" height="100%" version="1.1" viewBox="-1 -1 27 27" width="100%" xmlns="http://www.w3.org/2000/svg" xmlns:ev="http://www.w3.org/2001/xml-events" xmlns:xlink="http://www.w3.org/1999/xlink"><defs /><path d="M1.75,0.0h3.5a1.75,1.75 0 0 1 1.75,1.75v3.5a1.75,1.75 0 0 1 -1.75,1.75h-3.5a1.75,1.75 0 0 1 -1.75,-1.75v-3.5a1.75,1.75 0 0 1 1.75,-1.75z M2.25,1.0h2.5a1.25,1.25 0 0 1 1.25,1.25v2.5a1.25,1.25 0 0 1 -1.25,1.25h-2.5a1.25,1.25 0 0 1 -1.25,-1.25v-2.5a1.25,1.25 0 0 1 1.25,-1.25z M2.75,2.0h1.5a0.75,0.75 0 0 1 0.75,0.75v1.5a0.75,0.75 0 0 1 -0.75,0.75h-1.5a0.75,0.75 0 0 1 -0.75,-0.75v-1.5a0.75,0.75 0 0 1 0.75,-0.75z" fill="black" fill-rule="evenodd" /><path d="M19.75,0.0h3.5a1.75,1.75 0 0 1 1.75,1.75v3.5a1.75,1.75 0 0 1 -1.75,1.75h-3.5a1.75,1.75 0 0 1 -1.75,-1.75v-3.5a1.75,1.75 0 0 1 1.75,-1.75z M20.25,1.0h2.5a1.25,1.25 0 0 1 1.25,1.25v2.5a1.25,1.25 0 0 1 -1.25,1.25h-2.5a1.25,1.25 0 0 1 -1.25,-1.25v-2.5a1.25,1.25 0 0 1 1.25,-1.25z M20.75,2.0h1.5a0.75,0.75 0 0 1 0.75,0.75v1.5a0.75,0.75 0 0 1 -0.75,0.75h-1.5a0.75,0.75 0 0 1 -0.75,-0.75v-1.5a0.75,0.75 0 0 1 0.75,-0.75z" fill="black" fill-rule="evenodd" /><path d="M1.75,18.0h3.5a1.75,1.75 0 0 1 1.75,1.75v3.5a1.75,1.75 0 0 1 -1.75,1.75h-3.5a1.75,1.75 0 0 1 -1.75,-1.75v-3.5a1.75,1.75 0 0 1 1.75,-1.75z M2.25,19.0h2.5a1.25,1.25 0 0 1 1.25,1.25v2.5a1.25,1.25 0 0 1 -1.25,1.25h-2.5a1.25,1.25 0 0 1 -1.25,-1.25v-2.5a1.25,1.25 0 0 1 1.25,-1.25z M2.75,20.0h1.5a0.75,0.75 0 0 1 0.75,0.75v1.5a0.75,0.75 0 0 1 -0.75,0.75h-1.5a0.75,0.75 0 0 1 -0.75,-0.75v-1.5a0.75,0.75 0 0 1 0.75,-0.75z" fill="black" fill-rule="evenodd" /><path d="M9.5,0.05a0.45,0.45 0 0,0 0,0.9a0.45,0.45 0 0,0 0,-0.9zM10.5,0.05a0.45,0.45 0 0,0 0,0.9a0.45,0.45 0 0,0 0,-0.9zM12.5,0.05a0.45,0.45 0 0,0 0,0.9a0.45,0.45 0 0,0 0,-0.9zM13.5,0.05a0.45,0.45 0 0,0 0,0.9a0.45,0.45 0 0,0 0,-0.9zM14.5,0.05a0.45,0.45 0 0,0 0,0.9a0.45,0.45 0 0,0 0,-0.9zM15.5,0.05a0.45,0.45 0 0,0 0,0.9a0.45,0.45 0 0,0 0,-0.9zM8.5,1.05a0.45,0.45 0 0,0 0,0.9a0.45,0.45 0 0,0 0,-0.9zM9.5,1.05a0.45,0.45 0 0,0 0,0.9a0.45,0.45 0 0,0 0,-0.9zM14.5,1.05a0.45,0.45 0 0,0 0,0.9a0.45,0.45 0 0,0 0,-0.9zM15.5,1.05a0.45,0.45 0 0,0 0,0.9a0.45,0.45 0 0,0 0,-0.9zM16.5,1.05a0.45,0.45 0 0,0 0,0.9a0.45,0.45 0 0,0 0,-0.9zM9.5,2.05a0.45,0.45 0 0,0 0,0.9a0.45,0.45 0 0,0 0,-0.9zM11.5,2.05a0.45,0.45 0 0,0 0,0.9a0.45,0.45 0 0,0 0,-0.9zM12.5,2.05a0.45,0.45 0 0,0 0,0.9a0.45,0.45 0 0,0 0,-0.9zM14.5,2.05a0.45,0.45 0 0,0 0,0.9a0.45,0.45 0 0,0 0,-0.9zM15.5,2.05a0.45,0.45 0 0,0 0,0.9a0.45,0.45 0 0,0 0,-0.9zM9.5,3.05a0.45,0.45 0 0,0 0,0.9a0.45,0.45 0 0,0 0,-0.9zM11.5,3.05a0.45,0.45 0 0,0 0,0.9a0.45,0.45 0 0,0 0,-0.9zM14.5,3.05a0.45,0.45 0 0,0 0,0.9a0.45,0.45 0 0,0 0,-0.9zM8.5,4.05a0.45,0.45 0 0,0 0,0.9a0.45,0.45 0 0,0 0,-0.9zM9.5,4.05a0.45,0.45 0 0,0 0,0.9a0.45,0.45 0 0,0 0,-0.9zM10.5,4.05a0.45,0.45 0 0,0 0,0.9a0.45,0.45 0 0,0 0,-0.9zM12.5,4.05a0.45,0.45 0 0,0 0,0.9a0.45,0.45 0 0,0 0,-0.9zM14.5,4.05a0.45,0.45 0 0,0 0,0.9a0.45,0.45 0 0,0 0,-0.9zM15.5,4.05a0.45,0.45 0 0,0 0,0.9a0.45,0.45 0 0,0 0,-0.9zM11.5,5.05a0.45,0.45 0 0,0 0,0.9a0.45,0.45 0 0,0 0,-0.9zM14.5,5.05a0.45,0.45 0 0,0 0,0.9a0.45,0.45 0 0,0 0,-0.9zM15.5,5.05a0.45,0.45 0 0,0 0,0.9a0.45,0.45 0 0,0 0,-0.9zM8.5,6.05a0.45,0.45 0 0,0 0,0.9a0.45,0.45 0 0,0 0,-0.9zM10.5,6.05a0.45,0.45 0 0,0 0,0.9a0.45,0.45 0 0,0 0,-0.9zM12.5,6.05a0.45,0.45 0 0,0 0,0.9a0.45,0.45 0 0,0 0,-0.9zM14.5,6.05a0.45,0.45 0 0,0 0,0.9a0.45,0.45 0 0,0 0,-0.9zM16.5,6.05a0.45,0.45 0 0,0 0,0.9a0.45,0.45 0 0,0 0,-0.9zM12.5,7.05a0.45,0.45 0 0,0 0,0.9a0.45,0.45 0 0,0 0,-0.9zM13.5,7.05a0.45,0.45 0 0,0 0,0.9a0.45,0.45 0 0,0 0,-0.9zM14.5,7.05a0.45,0.45 0 0,0 0,0.9a0.45,0.45 0 0,0 0,-0.9zM15.5,7.05a0.45,0.45 0 0,0 0,0.9a0.45,0.45 0 0,0 0,-0.9zM16.5,7.05a0.45,0.45 0 0,0 0,0.9a0.45,0.45 0 0,0 0,-0.9zM0.5,8.05a0.45,0.45 0 0,0 0,0.9a0.45,0.45 0 0,0 0,-0.9zM2.5,8.05a0.45,0.45 0 0,0 0,0.9a0.45,0.45 0 0,0 0,-0.9zM4.5,8.05a0.45,0.45 0 0,0 0,0.9a0.45,0.45 0 0,0 0,-0.9zM6.5,8.05a0.45,0.45 0 0,0 0,0.9a0.45,0.45 0 0,0 0,-0.9zM9.5,8.05a0.45,0.45 0 0,0 0,0.9a0.45,0.45 0 0,0 0,-0.9zM10.5,8.05a0.45,0.45 0 0,0 0,0.9a0.45,0.45 0 0,0 0,-0.9zM11.5,8.05a0.45,0.45 0 0,0 0,0.9a0.45,0.45 0 0,0 0,-0.9zM13.5,8.05a0.45,0.45 0 0,0 0,0.9a0.45,0.45 0 0,0 0,-0.9zM14.5,8.05a0.45,0.45 0 0,0 0,0.9a0.45,0.45 0 0,0 0,-0.9zM15.5,8.05a0.45,0.45 0 0,0 0,0.9a0.45,0.45 0 0,0 0,-0.9zM16.5,8.05a0.45,0.45 0 0,0 0,0.9a0.45,0.45 0 0,0 0,-0.9zM20.5,8.05a0.45,0.45 0 0,0 0,0.9a0.45,0.45 0 0,0 0,-0.9zM23.5,8.05a0.45,0.45 0 0,0 0,0.9a0.45,0.45 0 0,0 0,-0.9zM1.5,9.05a0.45,0.45 0 0,0 0,0.9a0.45,0.45 0 0,0 0,-0.9zM5.5,9.05a0.45,0.45 0 0,0 0,0.9a0.45,0.45 0 0,0 0,-0.9zM7.5,9.05a0.45,0.45 0 0,0 0,0.9a0.45,0.45 0 0,0 0,-0.9zM8.5,9.05a0.45,0.45 0 0,0 0,0.9a0.45,0.45 0 0,0 0,-0.9zM9.5,9.05a0.45,0.45 0 0,0 0,0.9a0.45,0.45 0 0,0 0,-0.9zM11.5,9.05a0.45,0.45 0 0,0 0,0.9a0.45,0.45 0 0,0 0,-0.9zM12.5,9.05a0.45,0.45 0 0,0 0,0.9a0.45,0.45 0 0,0 0,-0.9zM13.5,9.05a0.45,0.45 0 0,0 0,0.9a0.45,0.45 0 0,0 0,-0.9zM16.5,9.05a0.45,0.45 0 0,0 0,0.9a0.45,0.45 0 0,0 0,-0.9zM17.5,9.05a0.45,0.45 0 0,0 0,0.9a0.45,0.45 0 0,0 0,-0.9zM18.5,9.05a0.45,0.45 0 0,0 0,0.9a0.45,0.45 0 0,0 0,-0.9zM19.5,9.05a0.45,0.45 0 0,0 0,0.9a0.45,0.45 0 0,0 0,-0.9zM21.5,9.05a0.45,0.45 0 0,0 0,0.9a0.45,0.45 0 0,0 0,-0.9zM22.5,9.05a0.45,0.45 0 0,0 0,0.9a0.45,0.45 0 0,0 0,-0.9zM23.5,9.05a0.45,0.45 0 0,0 0,0.9a0.45,0.45 0 0,0 0,-0.9zM24.5,9.05a0.45,0.45 0 0,0 0,0.9a0.45,0.45 0 0,0 0,-0.9zM3.5,10.05a0.45,0.45 0 0,0 0,0.9a0.45,0.45 0 0,0 0,-0.9zM4.5,10.05a0.45,0.45 0 0,0 0,0.9a0.45,0.45 0 0,0 0,-0.9zM5.5,10.05a0.45,0.45 0 0,0 0,0.9a0.45,0.45 0 0,0 0,-0.9zM6.5,10.05a0.45,0.45 0 0,0 0,0.9a0.45,0.45 0 0,0 0,-0.9zM8.5,10.05a0.45,0.45 0 0,0 0,0.9a0.45,0.45 0 0,0 0,-0.9zM9.5,10.05a0.45,0.45 0 0,0 0,0.9a0.45,0.45 0 0,0 0,-0.9zM12.5,10.05a0.45,0.45 0 0,0 0,0.9a0.45,0.45 0 0,0 0,-0.9zM14.5,10.05a0.45,0.45 0 0,0 0,0.9a0.45,0.45 0 0,0 0,-0.9zM16.5,10.05a0.45,0.45 0 0,0 0,0.9a0.45,0.45 0 0,0 0,-0.9zM18.5,10.05a0.45,0.45 0 0,0 0,0.9a0.45,0.45 0 0,0 0,-0.9zM19.5,10.05a0.45,0.45 0 0,0 0,0.9a0.45,0.45 0 0,0 0,-0.9zM20.5,10.05a0.45,0.45 0 0,0 0,0.9a0.45,0.45 0 0,0 0,-0.9zM21.5,10.05a0.45,0.45 0 0,0 0,0.9a0.45,0.45 0 0,0 0,-0.9zM22.5,10.05a0.45,0.45 0 0,0 0,0.9a0.45,0.45 0 0,0 0,-0.9zM23.5,10.05a0.45,0.45 0 0,0 0,0.9a0.45,0.45 0 0,0 0,-0.9zM24.5,10.05a0.45,0.45 0 0,0 0,0.9a0.45,0.45 0 0,0 0,-0.9zM0.5,11.05a0.45,0.45 0 0,0 0,0.9a0.45,0.45 0 0,0 0,-0.9zM1.5,11.05a0.45,0.45 0 0,0 0,0.9a0.45,0.45 0 0,0 0,-0.9zM2.5,11.05a0.45,0.45 0 0,0 0,0.9a0.45,0.45 0 0,0 0,-0.9zM3.5,11.05a0.45,0.45 0 0,0 0,0.9a0.45,0.45 0 0,0 0,-0.9zM7.5,11.05a0.45,0.45 0 0,0 0,0.9a0.45,0.45 0 0,0 0,-0.9zM8.5,11.05a0.45,0.45 0 0,0 0,0.9a0.45,0.45 0 0,0 0,-0.9zM9.5,11.05a0.45,0.45 0 0,0 0,0.9a0.45,0.45 0 0,0 0,-0.9zM10.5,11.05a0.45,0.45 0 0,0 0,0.9a0.45,0.45 0 0,0 0,-0.9zM12.5,11.05a0.45,0.45 0 0,0 0,0.9a0.45,0.45 0 0,0 0,-0.9zM13.5,11.05a0.45,0.45 0 0,0 0,0.9a0.45,0.45 0 0,0 0,-0.9zM15.5,11.05a0.45,0.45 0 0,0 0,0.9a0.45,0.45 0 0,0 0,-0.9zM17.5,11.05a0.45,0.45 0 0,0 0,0.9a0.45,0.45 0 0,0 0,-0.9zM19.5,11.05a0.45,0.45 0 0,0 0,0.9a0.45,0.45 0 0,0 0,-0.9zM23.5,11.05a0.45,0.45 0 0,0 0,0.9a0.45,0.45 0 0,0 0,-0.9zM1.5,12.05a0.45,0.45 0 0,0 0,0.9a0.45,0.45 0 0,0 0,-0.9zM3.5,12.05a0.45,0.45 0 0,0 0,0.9a0.45,0.45 0 0,0 0,-0.9zM5.5,12.05a0.45,0.45 0 0,0 0,0.9a0.45,0.45 0 0,0 0,-0.9zM6.5,12.05a0.45,0.45 0 0,0 0,0.9a0.45,0.45 0 0,0 0,-0.9zM8.5,12.05a0.45,0.45 0 0,0 0,0.9a0.45,0.45 0 0,0 0,-0.9zM9.5,12.05a0.45,0.45 0 0,0 0,0.9a0.45,0.45 0 0,0 0,-0.9zM11.5,12.05a0.45,0.45 0 0,0 0,0.9a0.45,0.45 0 0,0 0,-0.9zM13.5,12.05a0.45,0.45 0 0,0 0,0.9a0.45,0.45 0 0,0 0,-0.9zM16.5,12.05a0.45,0.45 0 0,0 0,0.9a0.45,0.45 0 0,0 0,-0.9zM17.5,12.05a0.45,0.45 0 0,0 0,0.9a0.45,0.45 0 0,0 0,-0.9zM18.5,12.05a0.45,0.45 0 0,0 0,0.9a0.45,0.45 0 0,0 0,-0.9zM21.5,12.05a0.45,0.45 0 0,0 0,0.9a0.45,0.45 0 0,0 0,-0.9zM4.5,13.05a0.45,0.45 0 0,0 0,0.9a0.45,0.45 0 0,0 0,-0.9zM7.5,13.05a0.45,0.45 0 0,0 0,0.9a0.45,0.45 0 0,0 0,-0.9zM8.5,13.05a0.45,0.45 0 0,0 0,0.9a0.45,0.45 0 0,0 0,-0.9zM9.5,13.05a0.45,0.45 0 0,0 0,0.9a0.45,0.45 0 0,0 0,-0.9zM10.5,13.05a0.45,0.45 0 0,0 0,0.9a0.45,0.45 0 0,0 0,-0.9zM11.5,13.05a0.45,0.45 0 0,0 0,0.9a0.45,0.45 0 0,0 0,-0.9zM13.5,13.05a0.45,0.45 0 0,0 0,0.9a0.45,0.45 0 0,0 0,-0.9zM14.5,13.05a0.45,0.45 0 0,0 0,0.9a0.45,0.45 0 0,0 0,-0.9zM18.5,13.05a0.45,0.45 0 0,0 0,0.9a0.45,0.45 0 0,0 0,-0.9zM21.5,13.05a0.45,0.45 0 0,0 0,0.9a0.45,0.45 0 0,0 0,-0.9zM23.5,13.05a0.45,0.45 0 0,0 0,0.9a0.45,0.45 0 0,0 0,-0.9zM24.5,13.05a0.45,0.45 0 0,0 0,0.9a0.45,0.45 0 0,0 0,-0.9zM0.5,14.05a0.45,0.45 0 0,0 0,0.9a0.45,0.45 0 0,0 0,-0.9zM2.5,14.05a0.45,0.45 0 0,0 0,0.9a0.45,0.45 0 0,0 0,-0.9zM5.5,14.05a0.45,0.45 0 0,0 0,0.9a0.45,0.45 0 0,0 0,-0.9zM6.5,14.05a0.45,0.45 0 0,0 0,0.9a0.45,0.45 0 0,0 0,-0.9zM10.5,14.05a0.45,0.45 0 0,0 0,0.9a0.45,0.45 0 0,0 0,-0.9zM17.5,14.05a0.45,0.45 0 0,0 0,0.9a0.45,0.45 0 0,0 0,-0.9zM18.5,14.05a0.45,0.45 0 0,0 0,0.9a0.45,0.45 0 0,0 0,-0.9zM20.5,14.05a0.45,0.45 0 0,0 0,0.9a0.45,0.45 0 0,0 0,-0.9zM21.5,14.05a0.45,0.45 0 0,0 0,0.9a0.45,0.45 0 0,0 0,-0.9zM23.5,14.05a0.45,0.45 0 0,0 0,0.9a0.45,0.45 0 0,0 0,-0.9zM24.5,14.05a0.45,0.45 0 0,0 0,0.9a0.45,0.45 0 0,0 0,-0.9zM1.5,15.05a0.45,0.45 0 0,0 0,0.9a0.45,0.45 0 0,0 0,-0.9zM7.5,15.05a0.45,0.45 0 0,0 0,0.9a0.45,0.45 0 0,0 0,-0.9zM9.5,15.05a0.45,0.45 0 0,0 0,0.9a0.45,0.45 0 0,0 0,-0.9zM11.5,15.05a0.45,0.45 0 0,0 0,0.9a0.45,0.45 0 0,0 0,-0.9zM13.5,15.05a0.45,0.45 0 0,0 0,0.9a0.45,0.45 0 0,0 0,-0.9zM15.5,15.05a0.45,0.45 0 0,0 0,0.9a0.45,0.45 0 0,0 0,-0.9zM17.5,15.05a0.45,0.45 0 0,0 0,0.9a0.45,0.45 0 0,0 0,-0.9zM18.5,15.05a0.45,0.45 0 0,0 0,0.9a0.45,0.45 0 0,0 0,-0.9zM19.5,15.05a0.45,0.45 0 0,0 0,0.9a0.45,0.45 0 0,0 0,-0.9zM21.5,15.05a0.45,0.45 0 0,0 0,0.9a0.45,0.45 0 0,0 0,-0.9zM23.5,15.05a0.45,0.45 0 0,0 0,0.9a0.45,0.45 0 0,0 0,-0.9zM0.5,16.05a0.45,0.45 0 0,0 0,0.9a0.45,0.45 0 0,0 0,-0.9zM3.5,16.05a0.45,0.45 0 0,0 0,0.9a0.45,0.45 0 0,0 0,-0.9zM4.5,16.05a0.45,0.45 0 0,0 0,0.9a0.45,0.45 0 0,0 0,-0.9zM6.5,16.05a0.45,0.45 0 0,0 0,0.9a0.45,0.45 0 0,0 0,-0.9zM7.5,16.05a0.45,0.45 0 0,0 0,0.9a0.45,0.45 0 0,0 0,-0.9zM12.5,16.05a0.45,0.45 0 0,0 0,0.9a0.45,0.45 0 0,0 0,-0.9zM13.5,16.05a0.45,0.45 0 0,0 0,0.9a0.45,0.45 0 0,0 0,-0.9zM15.5,16.05a0.45,0.45 0 0,0 0,0.9a0.45,0.45 0 0,0 0,-0.9zM16.5,16.05a0.45,0.45 0 0,0 0,0.9a0.45,0.45 0 0,0 0,-0.9zM17.5,16.05a0.45,0.45 0 0,0 0,0.9a0.45,0.45 0 0,0 0,-0.9zM18.5,16.05a0.45,0.45 0 0,0 0,0.9a0.45,0.45 0 0,0 0,-0.9zM19.5,16.05a0.45,0.45 0 0,0 0,0.9a0.45,0.45 0 0,0 0,-0.9zM20.5,16.05a0.45,0.45 0 0,0 0,0.9a0.45,0.45 0 0,0 0,-0.9zM23.5,16.05a0.45,0.45 0 0,0 0,0.9a0.45,0.45 0 0,0 0,-0.9zM24.5,16.05a0.45,0.45 0 0,0 0,0.9a0.45,0.45 0 0,0 0,-0.9zM8.5,17.05a0.45,0.45 0 0,0 0,0.9a0.45,0.45 0 0,0 0,-0.9zM11.5,17.05a0.45,0.45 0 0,0 0,0.9a0.45,0.45 0 0,0 0,-0.9zM12.5,17.05a0.45,0.45 0 0,0 0,0.9a0.45,0.45 0 0,0 0,-0.9zM13.5,17.05a0.45,0.45 0 0,0 0,0.9a0.45,0.45 0 0,0 0,-0.9zM16.5,17.05a0.45,0.45 0 0,0 0,0.9a0.45,0.45 0 0,0 0,-0.9zM20.5,17.05a0.45,0.45 0 0,0 0,0.9a0.45,0.45 0 0,0 0,-0.9zM21.5,17.05a0.45,0.45 0 0,0 0,0.9a0.45,0.45 0 0,0 0,-0.9zM24.5,17.05a0.45,0.45 0 0,0 0,0.9a0.45,0.45 0 0,0 0,-0.9zM9.5,18.05a0.45,0.45 0 0,0 0,0.9a0.45,0.45 0 0,0 0,-0.9zM10.5,18.05a0.45,0.45 0 0,0 0,0.9a0.45,0.45 0 0,0 0,-0.9zM11.5,18.05a0.45,0.45 0 0,0 0,0.9a0.45,0.45 0 0,0 0,-0.9zM12.5,18.05a0.45,0.45 0 0,0 0,0.9a0.45,0.45 0 0,0 0,-0.9zM15.5,18.05a0.45,0.45 0 0,0 0,0.9a0.45,0.45 0 0,0 0,-0.9zM16.5,18.05a0.45,0.45 0 0,0 0,0.9a0.45,0.45 0 0,0 0,-0.9zM18.5,18.05a0.45,0.45 0 0,0 0,0.9a0.45,0.45 0 0,0 0,-0.9zM20.5,18.05a0.45,0.45 0 0,0 0,0.9a0.45,0.45 0 0,0 0,-0.9zM22.5,18.05a0.45,0.45 0 0,0 0,0.9a0.45,0.45 0 0,0 0,-0.9zM23.5,18.05a0.45,0.45 0 0,0 0,0.9a0.45,0.45 0 0,0 0,-0.9zM24.5,18.05a0.45,0.45 0 0,0 0,0.9a0.45,0.45 0 0,0 0,-0.9zM12.5,19.05a0.45,0.45 0 0,0 0,0.9a0.45,0.45 0 0,0 0,-0.9zM13.5,19.05a0.45,0.45 0 0,0 0,0.9a0.45,0.45 0 0,0 0,-0.9zM14.5,19.05a0.45,0.45 0 0,0 0,0.9a0.45,0.45 0 0,0 0,-0.9zM16.5,19.05a0.45,0.45 0 0,0 0,0.9a0.45,0.45 0 0,0 0,-0.9zM20.5,19.05a0.45,0.45 0 0,0 0,0.9a0.45,0.45 0 0,0 0,-0.9zM23.5,19.05a0.45,0.45 0 0,0 0,0.9a0.45,0.45 0 0,0 0,-0.9zM8.5,20.05a0.45,0.45 0 0,0 0,0.9a0.45,0.45 0 0,0 0,-0.9zM9.5,20.05a0.45,0.45 0 0,0 0,0.9a0.45,0.45 0 0,0 0,-0.9zM11.5,20.05a0.45,0.45 0 0,0 0,0.9a0.45,0.45 0 0,0 0,-0.9zM12.5,20.05a0.45,0.45 0 0,0 0,0.9a0.45,0.45 0 0,0 0,-0.9zM13.5,20.05a0.45,0.45 0 0,0 0,0.9a0.45,0.45 0 0,0 0,-0.9zM16.5,20.05a0.45,0.45 0 0,0 0,0.9a0.45,0.45 0 0,0 0,-0.9zM17.5,20.05a0.45,0.45 0 0,0 0,0.9a0.45,0.45 0 0,0 0,-0.9zM18.5,20.05a0.45,0.45 0 0,0 0,0.9a0.45,0.45 0 0,0 0,-0.9zM19.5,20.05a0.45,0.45 0 0,0 0,0.9a0.45,0.45 0 0,0 0,-0.9zM20.5,20.05a0.45,0.45 0 0,0 0,0.9a0.45,0.45 0 0,0 0,-0.9zM11.5,21.05a0.45,0.45 0 0,0 0,0.9a0.45,0.45 0 0,0 0,-0.9zM14.5,21.05a0.45,0.45 0 0,0 0,0.9a0.45,0.45 0 0,0 0,-0.9zM15.5,21.05a0.45,0.45 0 0,0 0,0.9a0.45,0.45 0 0,0 0,-0.9zM16.5,21.05a0.45,0.45 0 0,0 0,0.9a0.45,0.45 0 0,0 0,-0.9zM19.5,21.05a0.45,0.45 0 0,0 0,0.9a0.45,0.45 0 0,0 0,-0.9zM20.5,21.05a0.45,0.45 0 0,0 0,0.9a0.45,0.45 0 0,0 0,-0.9zM21.5,21.05a0.45,0.45 0 0,0 0,0.9a0.45,0.45 0 0,0 0,-0.9zM22.5,21.05a0.45,0.45 0 0,0 0,0.9a0.45,0.45 0 0,0 0,-0.9zM8.5,22.05a0.45,0.45 0 0,0 0,0.9a0.45,0.45 0 0,0 0,-0.9zM9.5,22.05a0.45,0.45 0 0,0 0,0.9a0.45,0.45 0 0,0 0,-0.9zM12.5,22.05a0.45,0.45 0 0,0 0,0.9a0.45,0.45 0 0,0 0,-0.9zM14.5,22.05a0.45,0.45 0 0,0 0,0.9a0.45,0.45 0 0,0 0,-0.9zM16.5,22.05a0.45,0.45 0 0,0 0,0.9a0.45,0.45 0 0,0 0,-0.9zM20.5,22.05a0.45,0.45 0 0,0 0,0.9a0.45,0.45 0 0,0 0,-0.9zM21.5,22.05a0.45,0.45 0 0,0 0,0.9a0.45,0.45 0 0,0 0,-0.9zM22.5,22.05a0.45,0.45 0 0,0 0,0.9a0.45,0.45 0 0,0 0,-0.9zM24.5,22.05a0.45,0.45 0 0,0 0,0.9a0.45,0.45 0 0,0 0,-0.9zM10.5,23.05a0.45,0.45 0 0,0 0,0.9a0.45,0.45 0 0,0 0,-0.9zM11.5,23.05a0.45,0.45 0 0,0 0,0.9a0.45,0.45 0 0,0 0,-0.9zM12.5,23.05a0.45,0.45 0 0,0 0,0.9a0.45,0.45 0 0,0 0,-0.9zM13.5,23.05a0.45,0.45 0 0,0 0,0.9a0.45,0.45 0 0,0 0,-0.9zM16.5,23.05a0.45,0.45 0 0,0 0,0.9a0.45,0.45 0 0,0 0,-0.9zM20.5,23.05a0.45,0.45 0 0,0 0,0.9a0.45,0.45 0 0,0 0,-0.9zM23.5,23.05a0.45,0.45 0 0,0 0,0.9a0.45,0.45 0 0,0 0,-0.9zM8.5,24.05a0.45,0.45 0 0,0 0,0.9a0.45,0.45 0 0,0 0,-0.9zM9.5,24.05a0.45,0.45 0 0,0 0,0.9a0.45,0.45 0 0,0 0,-0.9zM10.5,24.05a0.45,0.45 0 0,0 0,0.9a0.45,0.45 0 0,0 0,-0.9zM13.5,24.05a0.45,0.45 0 0,0 0,0.9a0.45,0.45 0 0,0 0,-0.9zM15.5,24.05a0.45,0.45 0 0,0 0,0.9a0.45,0.45 0 0,0 0,-0.9zM16.5,24.05a0.45,0.45 0 0,0 0,0.9a0.45,0.45 0 0,0 0,-0.9zM17.5,24.05a0.45,0.45 0 0,0 0,0.9a0.45,0.45 0 0,0 0,-0.9zM18.5,24.05a0.45,0.45 0 0,0 0,0.9a0.45,0.45 0 0,0 0,-0.9zM20.5,24.05a0.45,0.45 0 0,0 0,0.9a0.45,0.45 0 0,0 0,-0.9zM21.5,24.05a0.45,0.45 0 0,0 0,0.9a0.45,0.45 0 0,0 0,-0.9zM23.5,24.05a0.45,0.45 0 0,0 0,0.9a0.45,0.45 0 0,0 0,-0.9zM24.5,24.05a0.45,0.45 0 0,0 0,0.9a0.45,0.45 0 0,0 0,-0.9z" fill="black" /></svg>